P3
4 4
255
0 0 1 101 0 1 0 0 0 254 1 254 
0 0 0 0 254 174 1 0 0 0 0 0 0 
1 1 0 1 0 0 14 174 1 1 0 255 1 
255 1 0 1 1 0 1 255 254 254 