P3
4 4
255
0 0 1 101 0 1 0 0 0 254 1 254 
0 0 0 0 254 175 1 0 1 0 0 0 0 
1 1 0 1 1 1 15 174 1 1 0 255 1 
254 0 0 1 1 0 1 254 254 255 