P3
4 4
255
0 0 1 101 0 0 0 1 0 254 1 254 
0 0 0 0 254 175 1 0 1 0 0 0 0 
0 0 0 0 0 0 15 175 0 0 0 255 0 
255 0 0 0 0 0 0 255 255 255 