P3
80 80
255
0 0 1 101 0 0 0 1 0 254 1 255 0 1 0 100 0 0 1 0 0 254 0 254 0 1 1 101 0 0 0 1 0 255 1 255 0 1 0 101 0 1 1 0 0 255 0 255 0 0 1 100 0 0 0 0 0 255 1 255 0 0 0 100 0 1 1 0 0 255 0 255 0 1 1 100 1 0 0 1 0 254 1 254 0 0 0 100 0 1 0 0 0 254 0 255 0 1 1 100 1 1 0 0 0 255 1 254 0 0 1 100 0 1 1 0 0 255 0 255 0 1 1 101 0 0 1 0 0 255 1 255 0 1 0 100 0 0 0 0 0 255 0 255 0 0 0 100 0 0 0 0 0 255 0 255 0 0 0 100 0 0 0 0 0 255 0 255 0 0 0 100 0 0 0 0 0 255 0 255 0 0 0 100 0 0 0 0 0 255 0 255 0 0 0 100 0 0 0 0 0 255 0 255 0 0 0 100 0 0 0 0 0 255 0 255 0 0 0 100 0 0 0 0 0 255 0 255 0 0 0 100 0 0 0 0 0 255 0 255 
0 0 0 100 0 0 0 0 0 255 0 255 0 0 0 100 0 0 0 0 0 255 0 255 0 0 0 100 0 0 0 0 0 255 0 255 0 0 0 100 0 0 0 0 0 255 0 255 0 0 0 100 0 0 0 0 0 255 0 255 0 0 0 100 0 0 0 0 0 255 0 255 0 0 0 100 0 0 0 0 0 255 0 255 0 0 0 100 0 0 0 0 0 255 0 255 0 0 0 100 0 0 0 0 0 255 0 255 0 0 0 100 0 0 0 0 0 255 0 255 0 0 0 100 0 0 0 0 0 255 0 255 0 0 0 100 0 0 0 0 0 255 0 255 0 0 0 100 0 0 0 0 0 255 0 255 0 0 0 100 0 0 0 0 0 255 0 255 0 0 0 100 0 0 0 0 0 255 0 255 0 0 0 100 0 0 0 0 0 255 0 255 0 0 0 100 0 0 0 0 0 255 0 255 0 0 0 100 0 0 0 0 0 255 0 255 0 0 0 100 0 0 0 0 0 255 0 255 0 0 0 100 0 0 0 0 0 255 0 255 0 
0 0 100 0 0 0 0 0 255 0 255 0 0 0 100 0 0 0 0 0 255 0 255 0 0 0 100 0 0 0 0 0 255 0 255 0 0 0 100 0 0 0 0 0 255 0 255 0 0 0 100 0 0 0 0 0 255 0 255 0 0 0 100 0 0 0 0 0 255 0 255 0 0 0 100 0 0 0 0 0 255 0 255 0 0 0 100 0 0 0 0 0 255 0 255 0 0 0 100 0 0 0 0 0 255 0 255 0 0 0 100 0 0 0 0 0 255 0 255 0 0 0 100 0 0 0 0 0 255 0 255 0 0 0 100 0 0 0 0 0 255 0 255 0 0 0 100 0 0 0 0 0 255 0 255 0 0 0 100 0 0 0 0 0 255 0 255 0 0 0 100 0 0 0 0 0 255 0 255 0 0 0 100 0 0 0 0 0 255 0 255 0 0 0 100 0 0 0 0 0 255 0 255 0 0 0 100 0 0 0 0 0 255 0 255 0 0 0 100 0 0 0 0 0 255 0 255 0 0 0 100 0 0 0 0 0 255 0 255 0 0 
0 100 0 0 0 0 0 255 0 255 0 0 0 100 0 0 0 0 0 255 0 255 0 0 0 100 0 0 0 0 0 255 0 255 0 0 0 100 0 0 0 0 0 255 0 255 0 0 0 100 0 0 0 0 0 255 0 255 0 0 0 100 0 0 0 0 0 255 0 255 0 0 0 100 0 0 0 0 0 255 0 255 0 0 0 100 0 0 0 0 0 255 0 255 0 0 0 100 0 0 0 0 0 255 0 255 0 0 0 100 0 0 0 0 0 255 0 255 0 0 0 100 0 0 0 0 0 255 0 255 0 0 0 100 0 0 0 0 0 255 0 255 0 0 0 100 0 0 0 0 0 255 0 255 0 0 0 100 0 0 0 0 0 255 0 255 0 0 0 100 0 0 0 0 0 255 0 255 0 0 0 100 0 0 0 0 0 255 0 255 0 0 0 100 0 0 0 0 0 255 0 255 0 0 0 100 0 0 0 0 0 255 0 255 0 0 0 100 0 0 0 0 0 255 0 255 0 0 0 100 0 0 0 0 0 255 0 255 0 0 0 
100 0 0 0 0 0 255 0 255 0 0 0 100 0 0 0 0 0 255 0 255 0 0 0 100 0 0 0 0 0 255 0 255 0 0 0 100 0 0 0 0 0 255 0 255 0 0 0 100 0 0 0 0 0 255 0 255 0 0 0 100 0 0 0 0 0 255 0 255 0 0 0 100 0 0 0 0 0 255 0 255 0 0 0 100 0 0 0 0 0 255 0 255 0 0 0 100 0 0 0 0 0 255 0 255 0 0 0 100 0 0 0 0 0 255 0 255 0 0 0 100 0 0 0 0 0 255 0 255 0 0 0 100 0 0 0 0 0 255 0 255 0 0 0 100 0 0 0 0 0 255 0 255 0 0 0 100 0 0 0 0 0 255 0 255 0 0 0 100 0 0 0 0 0 255 0 255 0 0 0 100 0 0 0 0 0 255 0 255 0 0 0 100 0 0 0 0 0 255 0 255 0 0 0 100 0 0 0 0 0 255 0 255 0 0 0 100 0 0 0 0 0 255 0 255 0 0 0 100 0 0 0 0 0 255 0 255 0 0 0 100 
0 0 0 0 0 255 0 255 0 0 0 100 0 0 0 0 0 255 0 255 0 0 0 100 0 0 0 0 0 255 0 255 0 0 0 100 0 0 0 0 0 255 0 255 0 0 0 100 0 0 0 0 0 255 0 255 0 0 0 100 0 0 0 0 0 255 0 255 0 0 0 100 0 0 0 0 0 255 0 255 0 0 0 100 0 0 0 0 0 255 0 255 0 0 0 100 0 0 0 0 0 255 0 255 0 0 0 100 0 0 0 0 0 255 0 255 0 0 0 100 0 0 0 0 0 255 0 255 0 0 0 100 0 0 0 0 0 255 0 255 0 0 0 100 0 0 0 0 0 255 0 255 0 0 0 100 0 0 0 0 0 255 0 255 0 0 0 100 0 0 0 0 0 255 0 255 0 0 0 100 0 0 0 0 0 255 0 255 0 0 0 100 0 0 0 0 0 255 0 255 0 0 0 100 0 0 0 0 0 255 0 255 0 0 0 100 0 0 0 0 0 255 0 255 0 0 0 100 0 0 0 0 0 255 0 255 0 0 0 100 0 
0 0 0 0 255 0 255 0 0 0 100 0 0 0 0 0 255 0 255 0 0 0 100 0 0 0 0 0 255 0 255 0 0 0 100 0 0 0 0 0 255 0 255 0 0 0 100 0 0 0 0 0 255 0 255 0 0 0 100 0 0 0 0 0 255 0 255 0 0 0 100 0 0 0 0 0 255 0 255 0 0 0 100 0 0 0 0 0 255 0 255 0 0 0 100 0 0 0 0 0 255 0 255 0 0 0 100 0 0 0 0 0 255 0 255 0 0 0 100 0 0 0 0 0 255 0 255 0 0 0 100 0 0 0 0 0 255 0 255 0 0 0 100 0 0 0 0 0 255 0 255 0 0 0 100 0 0 0 0 0 255 0 255 0 0 0 100 0 0 0 0 0 255 0 255 0 0 0 100 0 0 0 0 0 255 0 255 0 0 0 100 0 0 0 0 0 255 0 255 0 0 0 100 0 0 0 0 0 255 0 255 0 0 0 100 0 0 0 0 0 255 0 255 0 0 0 100 0 0 0 0 0 255 0 255 0 0 0 100 0 0 
0 0 0 255 0 255 0 0 0 100 0 0 0 0 0 255 0 255 0 0 0 100 0 0 0 0 0 255 0 255 0 0 0 100 0 0 0 0 0 255 0 255 0 0 0 100 0 0 0 0 0 255 0 255 0 0 0 100 0 0 0 0 0 255 0 255 0 0 0 100 0 0 0 0 0 255 0 255 0 0 0 100 0 0 0 0 0 255 0 255 0 0 0 100 0 0 0 0 0 255 0 255 0 0 0 100 0 0 0 0 0 255 0 255 0 0 0 100 0 0 0 0 0 255 0 255 0 0 0 100 0 0 0 0 0 255 0 255 0 0 0 100 0 0 0 0 0 255 0 255 0 0 0 100 0 0 0 0 0 255 0 255 0 0 0 100 0 0 0 0 0 255 0 255 0 0 0 100 0 0 0 0 0 255 0 255 0 0 0 100 0 0 0 0 0 255 0 255 0 0 0 100 0 0 0 0 0 255 0 255 0 0 0 100 0 0 0 0 0 255 0 255 0 0 0 100 0 0 0 0 0 255 0 255 0 0 0 100 0 0 0 
0 0 255 0 255 0 0 0 100 0 0 0 0 0 255 0 255 0 0 0 100 0 0 0 0 0 255 0 255 0 0 0 100 0 0 0 0 0 255 0 255 0 0 0 100 0 0 0 0 0 255 0 255 0 0 0 100 0 0 0 0 0 255 0 255 0 0 0 100 0 0 0 0 0 255 0 255 0 0 0 100 0 0 0 0 0 255 0 255 0 0 0 100 0 0 0 0 0 255 0 255 0 0 0 100 0 0 0 0 0 255 0 255 0 0 0 100 0 0 0 0 0 255 0 255 0 0 0 100 0 0 0 0 0 255 0 255 0 0 0 100 0 0 0 0 0 255 0 255 0 0 0 100 0 0 0 0 0 255 0 255 0 0 0 100 0 0 0 0 0 255 0 255 0 0 0 100 0 0 0 0 0 255 0 255 0 0 0 100 0 0 0 0 0 255 0 255 0 0 0 100 0 0 0 0 0 255 0 255 0 0 0 100 0 0 0 0 0 255 0 255 0 0 0 100 0 0 0 0 0 255 0 255 0 0 0 100 0 0 0 0 
0 255 0 255 0 0 0 100 0 0 0 0 0 255 0 255 0 0 0 100 0 0 0 0 0 255 0 255 0 0 0 100 0 0 0 0 0 255 0 255 0 0 0 100 0 0 0 0 0 255 0 255 0 0 0 100 0 0 0 0 0 255 0 255 0 0 0 100 0 0 0 0 0 255 0 255 0 0 0 100 0 0 0 0 0 255 0 255 0 0 0 100 0 0 0 0 0 255 0 255 0 0 0 100 0 0 0 0 0 255 0 255 0 0 0 100 0 0 0 0 0 255 0 255 0 0 0 100 0 0 0 0 0 255 0 255 0 0 0 100 0 0 0 0 0 255 0 255 0 0 0 100 0 0 0 0 0 255 0 255 0 0 0 100 0 0 0 0 0 255 0 255 0 0 0 100 0 0 0 0 0 255 0 255 0 0 0 100 0 0 0 0 0 255 0 255 0 0 0 100 0 0 0 0 0 255 0 255 0 0 0 100 0 0 0 0 0 255 0 255 0 0 0 100 0 0 0 0 0 255 0 255 0 0 0 100 0 0 0 0 0 
255 0 255 0 0 0 100 0 0 0 0 0 255 0 255 0 0 0 100 0 0 0 0 0 255 0 255 0 0 0 100 0 0 0 0 0 255 0 255 0 0 0 100 0 0 0 0 0 255 0 255 0 0 0 100 0 0 0 0 0 255 0 255 0 0 0 100 0 0 0 0 0 255 0 255 0 0 0 100 0 0 0 0 0 255 0 255 0 0 0 100 0 0 0 0 0 255 0 255 0 0 0 100 0 0 0 0 0 255 0 255 0 0 0 100 0 0 0 0 0 255 0 255 0 0 0 100 0 0 0 0 0 255 0 255 0 0 0 100 0 0 0 0 0 255 0 255 0 0 0 100 0 0 0 0 0 255 0 255 0 0 0 100 0 0 0 0 0 255 0 255 0 0 0 100 0 0 0 0 0 255 0 255 0 0 0 100 0 0 0 0 0 255 0 255 0 0 0 100 0 0 0 0 0 255 0 255 0 0 0 100 0 0 0 0 0 255 0 255 0 0 0 100 0 0 0 0 0 255 0 255 0 0 0 100 0 0 0 0 0 255 
0 255 0 0 0 100 0 0 0 0 0 255 0 255 0 0 0 100 0 0 0 0 0 255 0 255 0 0 0 100 0 0 0 0 0 255 0 255 0 0 0 100 0 0 0 0 0 255 0 255 0 0 0 100 0 0 0 0 0 255 0 255 0 0 0 100 0 0 0 0 0 255 0 255 0 0 0 100 0 0 0 0 0 255 0 255 0 0 0 100 0 0 0 0 0 255 0 255 0 0 0 100 0 0 0 0 0 255 0 255 0 0 0 100 0 0 0 0 0 255 0 255 0 0 0 100 0 0 0 0 0 255 0 255 0 0 0 100 0 0 0 0 0 255 0 255 0 0 0 100 0 0 0 0 0 255 0 255 0 0 0 100 0 0 0 0 0 255 0 255 0 0 0 100 0 0 0 0 0 255 0 255 0 0 0 100 0 0 0 0 0 255 0 255 0 0 0 100 0 0 0 0 0 255 0 255 0 0 0 100 0 0 0 0 0 255 0 255 0 0 0 100 0 0 0 0 0 255 0 255 0 0 0 100 0 0 0 0 0 255 0 
255 0 0 0 100 0 0 0 0 0 255 0 255 0 0 0 100 0 0 0 0 0 255 0 255 0 0 0 100 0 0 0 0 0 255 0 255 0 0 0 100 0 0 0 0 0 255 0 255 0 0 0 100 0 0 0 0 0 255 0 255 0 0 0 100 0 0 0 0 0 255 0 255 0 0 0 100 0 0 0 0 0 255 0 255 0 0 0 100 0 0 0 0 0 255 0 255 0 0 0 100 0 0 0 0 0 255 0 255 0 0 0 100 0 0 0 0 0 255 0 255 0 0 0 100 0 0 0 0 0 255 0 255 0 0 0 100 0 0 0 0 0 255 0 255 0 0 0 100 0 0 0 0 0 255 0 255 0 0 0 100 0 0 0 0 0 255 0 255 0 0 0 100 0 0 0 0 0 255 0 255 0 0 0 100 0 0 0 0 0 255 0 255 0 0 0 100 0 0 0 0 0 255 0 255 0 0 0 100 0 0 0 0 0 255 0 255 0 0 0 100 0 0 0 0 0 255 0 255 0 0 0 100 0 0 0 0 0 255 0 255 
0 0 0 100 0 0 0 0 0 255 0 255 0 0 0 100 0 0 0 0 0 255 0 255 0 0 0 100 0 0 0 0 0 255 0 255 0 0 0 100 0 0 0 0 0 255 0 255 0 0 0 100 0 0 0 0 0 255 0 255 0 0 0 100 0 0 0 0 0 255 0 255 0 0 0 100 0 0 0 0 0 255 0 255 0 0 0 100 0 0 0 0 0 255 0 255 0 0 0 100 0 0 0 0 0 255 0 255 0 0 0 100 0 0 0 0 0 255 0 255 0 0 0 100 0 0 0 0 0 255 0 255 0 0 0 100 0 0 0 0 0 255 0 255 0 0 0 100 0 0 0 0 0 255 0 255 0 0 0 100 0 0 0 0 0 255 0 255 0 0 0 100 0 0 0 0 0 255 0 255 0 0 0 100 0 0 0 0 0 255 0 255 0 0 0 100 0 0 0 0 0 255 0 255 0 0 0 100 0 0 0 0 0 255 0 255 0 0 0 100 0 0 0 0 0 255 0 255 0 0 0 100 0 0 0 0 0 255 0 255 0 
0 0 100 0 0 0 0 0 255 0 255 0 0 0 100 0 0 0 0 0 255 0 255 0 0 0 100 0 0 0 0 0 255 0 255 0 0 0 100 0 0 0 0 0 255 0 255 0 0 0 100 0 0 0 0 0 255 0 255 0 0 0 100 0 0 0 0 0 255 0 255 0 0 0 100 0 0 0 0 0 255 0 255 0 0 0 100 0 0 0 0 0 255 0 255 0 0 0 100 0 0 0 0 0 255 0 255 0 0 0 100 0 0 0 0 0 255 0 255 0 0 0 100 0 0 0 0 0 255 0 255 0 0 0 100 0 0 0 0 0 255 0 255 0 0 0 100 0 0 0 0 0 255 0 255 0 0 0 100 0 0 0 0 0 255 0 255 0 0 0 100 0 0 0 0 0 255 0 255 0 0 0 100 0 0 0 0 0 255 0 255 0 0 0 100 0 0 0 0 0 255 0 255 0 0 0 100 0 0 0 0 0 255 0 255 0 0 0 100 0 0 0 0 0 255 0 255 0 0 0 100 0 0 0 0 0 255 0 255 0 0 
0 100 0 0 0 0 0 255 0 255 0 0 0 100 0 0 0 0 0 255 0 255 0 0 0 100 0 0 0 0 0 255 0 255 0 0 0 100 0 0 0 0 0 255 0 255 0 0 0 100 0 0 0 0 0 255 0 255 0 0 0 100 0 0 0 0 0 255 0 255 0 0 0 100 0 0 0 0 0 255 0 255 0 0 0 100 0 0 0 0 0 255 0 255 0 0 0 100 0 0 0 0 0 255 0 255 0 0 0 100 0 0 0 0 0 255 0 255 0 0 0 100 0 0 0 0 0 255 0 255 0 0 0 100 0 0 0 0 0 255 0 255 0 0 0 100 0 0 0 0 0 255 0 255 0 0 0 100 0 0 0 0 0 255 0 255 0 0 0 100 0 0 0 0 0 255 0 255 0 0 0 100 0 0 0 0 0 255 0 255 0 0 0 100 0 0 0 0 0 255 0 255 0 0 0 100 0 0 0 0 0 255 0 255 0 0 0 100 0 0 0 0 0 255 0 255 0 0 0 100 0 0 0 0 0 255 0 255 0 0 0 
100 0 0 0 0 0 255 0 255 0 0 0 100 0 0 0 0 0 255 0 255 0 0 0 100 0 0 0 0 0 255 0 255 0 0 0 100 0 0 0 0 0 255 0 255 0 0 0 100 0 0 0 0 0 255 0 255 0 0 0 100 0 0 0 0 0 255 0 255 0 0 0 100 0 0 0 0 0 255 0 255 0 0 0 100 0 0 0 0 0 255 0 255 0 0 0 100 0 0 0 0 0 255 0 255 0 0 0 100 0 0 0 0 0 255 0 255 0 0 0 100 0 0 0 0 0 255 0 255 0 0 0 100 0 0 0 0 0 255 0 255 0 0 0 100 0 0 0 0 0 255 0 255 0 0 0 100 0 0 0 0 0 255 0 255 0 0 0 100 0 0 0 0 0 255 0 255 0 0 0 100 0 0 0 0 0 255 0 255 0 0 0 100 0 0 0 0 0 255 0 255 0 0 0 100 0 0 0 0 0 255 0 255 0 0 0 100 0 0 0 0 0 255 0 255 0 0 0 100 0 0 0 0 0 255 0 255 0 0 0 100 
0 0 0 0 0 255 0 255 0 0 0 100 0 0 0 0 0 255 0 255 0 0 0 100 0 0 0 0 0 255 0 255 0 0 0 100 0 0 0 0 0 255 0 255 0 0 0 100 0 0 0 0 0 255 0 255 0 0 0 100 0 0 0 0 0 255 0 255 0 0 0 100 0 0 0 0 0 255 0 255 0 0 0 100 0 0 0 0 0 255 0 255 0 0 0 100 0 0 0 0 0 255 0 255 0 0 0 100 0 0 0 0 0 255 0 255 0 0 0 100 0 0 0 0 0 255 0 255 0 0 0 100 0 0 0 0 0 255 0 255 0 0 0 100 0 0 0 0 0 255 0 255 0 0 0 100 0 0 0 0 0 255 0 255 0 0 0 100 0 0 0 0 0 255 0 255 0 0 0 100 0 0 0 0 0 255 0 255 0 0 0 100 0 0 0 0 0 255 0 255 0 0 0 100 0 0 0 0 0 255 0 255 0 0 0 100 0 0 0 0 0 255 0 255 0 0 0 100 0 0 0 0 0 255 0 255 0 0 0 100 0 
0 0 0 0 255 0 255 0 0 0 100 0 0 0 0 0 255 0 255 0 0 0 100 0 0 0 0 0 255 0 255 0 0 0 100 0 0 0 0 0 255 0 255 0 0 0 100 0 0 0 0 0 255 0 255 0 0 0 100 0 0 0 0 0 255 0 255 0 0 0 100 0 0 0 0 0 255 0 255 0 0 0 100 0 0 0 0 0 255 0 255 0 0 0 100 0 0 0 0 0 255 0 255 0 0 0 100 0 0 0 0 0 255 0 255 0 0 0 100 0 0 0 0 0 255 0 255 0 0 0 100 0 0 0 0 0 255 0 255 0 0 0 100 0 0 0 0 0 255 0 255 0 0 0 100 0 0 0 0 0 255 0 255 0 0 0 100 0 0 0 0 0 255 0 255 0 0 0 100 0 0 0 0 0 255 0 255 0 0 0 100 0 0 0 0 0 255 0 255 0 0 0 100 0 0 0 0 0 255 0 255 0 0 0 100 0 0 0 0 0 255 0 255 0 0 0 100 0 0 0 0 0 255 0 255 0 0 0 100 0 0 
0 0 0 255 0 255 0 0 0 100 0 0 0 0 0 255 0 255 0 0 0 100 0 0 0 0 0 255 0 255 0 0 0 100 0 0 0 0 0 255 0 255 0 0 0 100 0 0 0 0 0 255 0 255 0 0 0 100 0 0 0 0 0 255 0 255 0 0 0 100 0 0 0 0 0 255 0 255 0 0 0 100 0 0 0 0 0 255 0 255 0 0 0 100 0 0 0 0 0 255 0 255 0 0 0 100 0 0 0 0 0 255 0 255 0 0 0 100 0 0 0 0 0 255 0 255 0 0 0 100 0 0 0 0 0 255 0 255 0 0 0 100 0 0 0 0 0 255 0 255 0 0 0 100 0 0 0 0 0 255 0 255 0 0 0 100 0 0 0 0 0 255 0 255 0 0 0 100 0 0 0 0 0 255 0 255 0 0 0 100 0 0 0 0 0 255 0 255 0 0 0 100 0 0 0 0 0 255 0 255 0 0 0 100 0 0 0 0 0 255 0 255 0 0 0 100 0 0 0 0 0 255 0 255 0 0 0 100 0 0 0 
0 0 255 0 255 0 0 0 100 0 0 0 0 0 255 0 255 0 0 0 100 0 0 0 0 0 255 0 255 0 0 0 100 0 0 0 0 0 255 0 255 0 0 0 100 0 0 0 0 0 255 0 255 0 0 0 100 0 0 0 0 0 255 0 255 0 0 0 100 0 0 0 0 0 255 0 255 0 0 0 100 0 0 0 0 0 255 0 255 0 0 0 100 0 0 0 0 0 255 0 255 0 0 0 100 0 0 0 0 0 255 0 255 0 0 0 100 0 0 0 0 0 255 0 255 0 0 0 100 0 0 0 0 0 255 0 255 0 0 0 100 0 0 0 0 0 255 0 255 0 0 0 100 0 0 0 0 0 255 0 255 0 0 0 100 0 0 0 0 0 255 0 255 0 0 0 100 0 0 0 0 0 255 0 255 0 0 0 100 0 0 0 0 0 255 0 255 0 0 0 100 0 0 0 0 0 255 0 255 0 0 0 100 0 0 0 0 0 255 0 255 0 0 0 100 0 0 0 0 0 255 0 255 0 0 0 100 0 0 0 0 
0 255 0 255 0 0 0 100 0 0 0 0 0 255 0 255 0 0 0 100 0 0 0 0 0 255 0 255 0 0 0 100 0 0 0 0 0 255 0 255 0 0 0 100 0 0 0 0 0 255 0 255 0 0 0 100 0 0 0 0 0 255 0 255 0 0 0 100 0 0 0 0 0 255 0 255 0 0 0 100 0 0 0 0 0 255 0 255 0 0 0 100 0 0 0 0 0 255 0 255 0 0 0 100 0 0 0 0 0 255 0 255 0 0 0 100 0 0 0 0 0 255 0 255 0 0 0 100 0 0 0 0 0 255 0 255 0 0 0 100 0 0 0 0 0 255 0 255 0 0 0 100 0 0 0 0 0 255 0 255 0 0 0 100 0 0 0 0 0 255 0 255 0 0 0 100 0 0 0 0 0 255 0 255 0 0 0 100 0 0 0 0 0 255 0 255 0 0 0 100 0 0 0 0 0 255 0 255 0 0 0 100 0 0 0 0 0 255 0 255 0 0 0 100 0 0 0 0 0 255 0 255 0 0 0 100 0 0 0 0 0 
255 0 255 0 0 0 100 0 0 0 0 0 255 0 255 0 0 0 100 0 0 0 0 0 255 0 255 0 0 0 100 0 0 0 0 0 255 0 255 0 0 0 100 0 0 0 0 0 255 0 255 0 0 0 100 0 0 0 0 0 255 0 255 0 0 0 100 0 0 0 0 0 255 0 255 0 0 0 100 0 0 0 0 0 255 0 255 0 0 0 100 0 0 0 0 0 255 0 255 0 0 0 100 0 0 0 0 0 255 0 255 0 0 0 100 0 0 0 0 0 255 0 255 0 0 0 100 0 0 0 0 0 255 0 255 0 0 0 100 0 0 0 0 0 255 0 255 0 0 0 100 0 0 0 0 0 255 0 255 0 0 0 100 0 0 0 0 0 255 0 255 0 0 0 100 0 0 0 0 0 255 0 255 0 0 0 100 0 0 0 0 0 255 0 255 0 0 0 100 0 0 0 0 0 255 0 255 0 0 0 100 0 0 0 0 0 255 0 255 0 0 0 100 0 0 0 0 0 255 0 255 0 0 0 100 0 0 0 0 0 255 
0 255 0 0 0 100 0 0 0 0 0 255 0 255 0 0 0 100 0 0 0 0 0 255 0 255 0 0 0 100 0 0 0 0 0 255 0 255 0 0 0 100 0 0 0 0 0 255 0 255 0 0 0 100 0 0 0 0 0 255 0 255 0 0 0 100 0 0 0 0 0 255 0 255 0 0 0 100 0 0 0 0 0 255 0 255 0 0 0 100 0 0 0 0 0 255 0 255 0 0 0 100 0 0 0 0 0 255 0 255 0 0 0 100 0 0 0 0 0 255 0 255 0 0 0 100 0 0 0 0 0 255 0 255 0 0 0 100 0 0 0 0 0 255 0 255 0 0 0 100 0 0 0 0 0 255 0 255 0 0 0 100 0 0 0 0 0 255 0 255 0 0 0 100 0 0 0 0 0 255 0 255 0 0 0 100 0 0 0 0 0 255 0 255 0 0 0 100 0 0 0 0 0 255 0 255 0 0 0 100 0 0 0 0 0 255 0 255 0 0 0 100 0 0 0 0 0 255 0 255 0 0 0 100 0 0 0 0 0 255 0 
255 0 0 0 100 0 0 0 0 0 255 0 255 0 0 0 100 0 0 0 0 0 255 0 255 0 0 0 100 0 0 0 0 0 255 0 255 0 0 0 100 0 0 0 0 0 255 0 255 0 0 0 100 0 0 0 0 0 255 0 255 0 0 0 100 0 0 0 0 0 255 0 255 0 0 0 100 0 0 0 0 0 255 0 255 0 0 0 100 0 0 0 0 0 255 0 255 0 0 0 100 0 0 0 0 0 255 0 255 0 0 0 100 0 0 0 0 0 255 0 255 0 0 0 100 0 0 0 0 0 255 0 255 0 0 0 100 0 0 0 0 0 255 0 255 0 0 0 100 0 0 0 0 0 255 0 255 0 0 0 100 0 0 0 0 0 255 0 255 0 0 0 100 0 0 0 0 0 255 0 255 0 0 0 100 0 0 0 0 0 255 0 255 0 0 0 100 0 0 0 0 0 255 0 255 0 0 0 100 0 0 0 0 0 255 0 255 0 0 0 100 0 0 0 0 0 255 0 255 0 0 0 100 0 0 0 0 0 255 0 255 
0 0 0 100 0 0 0 0 0 255 0 255 0 0 0 100 0 0 0 0 0 255 0 255 0 0 0 100 0 0 0 0 0 255 0 255 0 0 0 100 0 0 0 0 0 255 0 255 0 0 0 100 0 0 0 0 0 255 0 255 0 0 0 100 0 0 0 0 0 255 0 255 0 0 0 100 0 0 0 0 0 255 0 255 0 0 0 100 0 0 0 0 0 255 0 255 0 0 0 100 0 0 0 0 0 255 0 255 0 0 0 100 0 0 0 0 0 255 0 255 0 0 0 100 0 0 0 0 0 255 0 255 0 0 0 100 0 0 0 0 0 255 0 255 0 0 0 100 0 0 0 0 0 255 0 255 0 0 0 100 0 0 0 0 0 255 0 255 0 0 0 100 0 0 0 0 0 255 0 255 0 0 0 100 0 0 0 0 0 255 0 255 0 0 0 100 0 0 0 0 0 255 0 255 0 0 0 100 0 0 0 0 0 255 0 255 0 0 0 100 0 0 0 0 0 255 0 255 0 0 0 100 0 0 0 0 0 255 0 255 0 
0 0 100 0 0 0 0 0 255 0 255 0 0 0 100 0 0 0 0 0 255 0 255 0 0 0 100 0 0 0 0 0 255 0 255 0 0 0 100 0 0 0 0 0 255 0 255 0 0 0 100 0 0 0 0 0 255 0 255 0 0 0 100 0 0 0 0 0 255 0 255 0 0 0 100 0 0 0 0 0 255 0 255 0 0 0 100 0 0 0 0 0 255 0 255 0 0 0 100 0 0 0 0 0 255 0 255 0 0 0 100 0 0 0 0 0 255 0 255 0 0 0 100 0 0 0 0 0 255 0 255 0 0 0 100 0 0 0 0 0 255 0 255 0 0 0 100 0 0 0 0 0 255 0 255 0 0 0 100 0 0 0 0 0 255 0 255 0 0 0 100 0 0 0 0 0 255 0 255 0 0 0 100 0 0 0 0 0 255 0 255 0 0 0 100 0 0 0 0 0 255 0 255 0 0 0 100 0 0 0 0 0 255 0 255 0 0 0 100 0 0 0 0 0 255 0 255 0 0 0 100 0 0 0 0 0 255 0 255 0 0 
0 100 0 0 0 0 0 255 0 255 0 0 0 100 0 0 0 0 0 255 0 255 0 0 0 100 0 0 0 0 0 255 0 255 0 0 0 100 0 0 0 0 0 255 0 255 0 0 0 100 0 0 0 0 0 255 0 255 0 0 0 100 0 0 0 0 0 255 0 255 0 0 0 100 0 0 0 0 0 255 0 255 0 0 0 100 0 0 0 0 0 255 0 255 0 0 0 100 0 0 0 0 0 255 0 255 0 0 0 100 0 0 0 0 0 255 0 255 0 0 0 100 0 0 0 0 0 255 0 255 0 0 0 100 0 0 0 0 0 255 0 255 0 0 0 100 0 0 0 0 0 255 0 255 0 0 0 100 0 0 0 0 0 255 0 255 0 0 0 100 0 0 0 0 0 255 0 255 0 0 0 100 0 0 0 0 0 255 0 255 0 0 0 100 0 0 0 0 0 255 0 255 0 0 0 100 0 0 0 0 0 255 0 255 0 0 0 100 0 0 0 0 0 255 0 255 0 0 0 100 0 0 0 0 0 255 0 255 0 0 0 
100 0 0 0 0 0 255 0 255 0 0 0 100 0 0 0 0 0 255 0 255 0 0 0 100 0 0 0 0 0 255 0 255 0 0 0 100 0 0 0 0 0 255 0 255 0 0 0 100 0 0 0 0 0 255 0 255 0 0 0 100 0 0 0 0 0 255 0 255 0 0 0 100 0 0 0 0 0 255 0 255 0 0 0 100 0 0 0 0 0 255 0 255 0 0 0 100 0 0 0 0 0 255 0 255 0 0 0 100 0 0 0 0 0 255 0 255 0 0 0 100 0 0 0 0 0 255 0 255 0 0 0 100 0 0 0 0 0 255 0 255 0 0 0 100 0 0 0 0 0 255 0 255 0 0 0 100 0 0 0 0 0 255 0 255 0 0 0 100 0 0 0 0 0 255 0 255 0 0 0 100 0 0 0 0 0 255 0 255 0 0 0 100 0 0 0 0 0 255 0 255 0 0 0 100 0 0 0 0 0 255 0 255 0 0 0 100 0 0 0 0 0 255 0 255 0 0 0 100 0 0 0 0 0 255 0 255 0 0 0 100 
0 0 0 0 0 255 0 255 0 0 0 100 0 0 0 0 0 255 0 255 0 0 0 100 0 0 0 0 0 255 0 255 0 0 0 100 0 0 0 0 0 255 0 255 0 0 0 100 0 0 0 0 0 255 0 255 0 0 0 100 0 0 0 0 0 255 0 255 0 0 0 100 0 0 0 0 0 255 0 255 0 0 0 100 0 0 0 0 0 255 0 255 0 0 0 100 0 0 0 0 0 255 0 255 0 0 0 100 0 0 0 0 0 255 0 255 0 0 0 100 0 0 0 0 0 255 0 255 0 0 0 100 0 0 0 0 0 255 0 255 0 0 0 100 0 0 0 0 0 255 0 255 0 0 0 100 0 0 0 0 0 255 0 255 0 0 0 100 0 0 0 0 0 255 0 255 0 0 0 100 0 0 0 0 0 255 0 255 0 0 0 100 0 0 0 0 0 255 0 255 0 0 0 100 0 0 0 0 0 255 0 255 0 0 0 100 0 0 0 0 0 255 0 255 0 0 0 100 0 0 0 0 0 255 0 255 0 0 0 100 0 
0 0 0 0 255 0 255 0 0 0 100 0 0 0 0 0 255 0 255 0 0 0 100 0 0 0 0 0 255 0 255 0 0 0 100 0 0 0 0 0 255 0 255 0 0 0 100 0 0 0 0 0 255 0 255 0 0 0 100 0 0 0 0 0 255 0 255 0 0 0 100 0 0 0 0 0 255 0 255 0 0 0 100 0 0 0 0 0 255 0 255 0 0 0 100 0 0 0 0 0 255 0 255 0 0 0 100 0 0 0 0 0 255 0 255 0 0 0 100 0 0 0 0 0 255 0 255 0 0 0 100 0 0 0 0 0 255 0 255 0 0 0 100 0 0 0 0 0 255 0 255 0 0 0 100 0 0 0 0 0 255 0 255 0 0 0 100 0 0 0 0 0 255 0 255 0 0 0 100 0 0 0 0 0 255 0 255 0 0 0 100 0 0 0 0 0 255 0 255 0 0 0 100 0 0 0 0 0 255 0 255 0 0 0 100 0 0 0 0 0 255 0 255 0 0 0 100 0 0 0 0 0 255 0 255 0 0 0 100 0 0 
0 0 0 255 0 255 0 0 0 100 0 0 0 0 0 255 0 255 0 0 0 100 0 0 0 0 0 255 0 255 0 0 0 100 0 0 0 0 0 255 0 255 0 0 0 100 0 0 0 0 0 255 0 255 0 0 0 100 0 0 0 0 0 255 0 255 0 0 0 100 0 0 0 0 0 255 0 255 0 0 0 100 0 0 0 0 0 255 0 255 0 0 0 100 0 0 0 0 0 255 0 255 0 0 0 100 0 0 0 0 0 255 0 255 0 0 0 100 0 0 0 0 0 255 0 255 0 0 0 100 0 0 0 0 0 255 0 255 0 0 0 100 0 0 0 0 0 255 0 255 0 0 0 100 0 0 0 0 0 255 0 255 0 0 0 100 0 0 0 0 0 255 0 255 0 0 0 100 0 0 0 0 0 255 0 255 0 0 0 100 0 0 0 0 0 255 0 255 0 0 0 100 0 0 0 0 0 255 0 255 0 0 0 100 0 0 0 0 0 255 0 255 0 0 0 100 0 0 0 0 0 255 0 255 0 0 0 100 0 0 0 
0 0 255 0 255 0 0 0 100 0 0 0 0 0 255 0 255 0 0 0 100 0 0 0 0 0 255 0 255 0 0 0 100 0 0 0 0 0 255 0 255 0 0 0 100 0 0 0 0 0 255 0 255 0 0 0 100 0 0 0 0 0 255 0 255 0 0 0 100 0 0 0 0 0 255 0 255 0 0 0 100 0 0 0 0 0 255 0 255 0 0 0 100 0 0 0 0 0 255 0 255 0 0 0 100 0 0 0 0 0 255 0 255 0 0 0 100 0 0 0 0 0 255 0 255 0 0 0 100 0 0 0 0 0 255 0 255 0 0 0 100 0 0 0 0 0 255 0 255 0 0 0 100 0 0 0 0 0 255 0 255 0 0 0 100 0 0 0 0 0 255 0 255 0 0 0 100 0 0 0 0 0 255 0 255 0 0 0 100 0 0 0 0 0 255 0 255 0 0 0 100 0 0 0 0 0 255 0 255 0 0 0 100 0 0 0 0 0 255 0 255 0 0 0 100 0 0 0 0 0 255 0 255 0 0 0 100 0 0 0 0 
0 255 0 255 0 0 0 100 0 0 0 0 0 255 0 255 0 0 0 100 0 0 0 0 0 255 0 255 0 0 0 100 0 0 0 0 0 255 0 255 0 0 0 100 0 0 0 0 0 255 0 255 0 0 0 100 0 0 0 0 0 255 0 255 0 0 0 100 0 0 0 0 0 255 0 255 0 0 0 100 0 0 0 0 0 255 0 255 0 0 0 100 0 0 0 0 0 255 0 255 0 0 0 100 0 0 0 0 0 255 0 255 0 0 0 100 0 0 0 0 0 255 0 255 0 0 0 100 0 0 0 0 0 255 0 255 0 0 0 100 0 0 0 0 0 255 0 255 0 0 0 100 0 0 0 0 0 255 0 255 0 0 0 100 0 0 0 0 0 255 0 255 0 0 0 100 0 0 0 0 0 255 0 255 0 0 0 100 0 0 0 0 0 255 0 255 0 0 0 100 0 0 0 0 0 255 0 255 0 0 0 100 0 0 0 0 0 255 0 255 0 0 0 100 0 0 0 0 0 255 0 255 0 0 0 100 0 0 0 0 0 
255 0 255 0 0 0 100 0 0 0 0 0 255 0 255 0 0 0 100 0 0 0 0 0 255 0 255 0 0 0 100 0 0 0 0 0 255 0 255 0 0 0 100 0 0 0 0 0 255 0 255 0 0 0 100 0 0 0 0 0 255 0 255 0 0 0 100 0 0 0 0 0 255 0 255 0 0 0 100 0 0 0 0 0 255 0 255 0 0 0 100 0 0 0 0 0 255 0 255 0 0 0 100 0 0 0 0 0 255 0 255 0 0 0 100 0 0 0 0 0 255 0 255 0 0 0 100 0 0 0 0 0 255 0 255 0 0 0 100 0 0 0 0 0 255 0 255 0 0 0 100 0 0 0 0 0 255 0 255 0 0 0 100 0 0 0 0 0 255 0 255 0 0 0 100 0 0 0 0 0 255 0 255 0 0 0 100 0 0 0 0 0 255 0 255 0 0 0 100 0 0 0 0 0 255 0 255 0 0 0 100 0 0 0 0 0 255 0 255 0 0 0 100 0 0 0 0 0 255 0 255 0 0 0 100 0 0 0 0 0 255 
0 255 0 0 0 100 0 0 0 0 0 255 0 255 0 0 0 100 0 0 0 0 0 255 0 255 0 0 0 100 0 0 0 0 0 255 0 255 0 0 0 100 0 0 0 0 0 255 0 255 0 0 0 100 0 0 0 0 0 255 0 255 0 0 0 100 0 0 0 0 0 255 0 255 0 0 0 100 0 0 0 0 0 255 0 255 0 0 0 100 0 0 0 0 0 255 0 255 0 0 0 100 0 0 0 0 0 255 0 255 0 0 0 100 0 0 0 0 0 255 0 255 0 0 0 100 0 0 0 0 0 255 0 255 0 0 0 100 0 0 0 0 0 255 0 255 0 0 0 100 0 0 0 0 0 255 0 255 0 0 0 100 0 0 0 0 0 255 0 255 0 0 0 100 0 0 0 0 0 255 0 255 0 0 0 100 0 0 0 0 0 255 0 255 0 0 0 100 0 0 0 0 0 255 0 255 0 0 0 100 0 0 0 0 0 255 0 255 0 0 0 100 0 0 0 0 0 255 0 255 0 0 0 100 0 0 0 0 0 255 0 
255 0 0 0 100 0 0 0 0 0 255 0 255 0 0 0 100 0 0 0 0 0 255 0 255 0 0 0 100 0 0 0 0 0 255 0 255 0 0 0 100 0 0 0 0 0 255 0 255 0 0 0 100 0 0 0 0 0 255 0 255 0 0 0 100 0 0 0 0 0 255 0 255 0 0 0 100 0 0 0 0 0 255 0 255 0 0 0 100 0 0 0 0 0 255 0 255 0 0 0 100 0 0 0 0 0 255 0 255 0 0 0 100 0 0 0 0 0 255 0 255 0 0 0 100 0 0 0 0 0 255 0 255 0 0 0 100 0 0 0 0 0 255 0 255 0 0 0 100 0 0 0 0 0 255 0 255 0 0 0 100 0 0 0 0 0 255 0 255 0 0 0 100 0 0 0 0 0 255 0 255 0 0 0 100 0 0 0 0 0 255 0 255 0 0 0 100 0 0 0 0 0 255 0 255 0 0 0 100 0 0 0 0 0 255 0 255 0 0 0 100 0 0 0 0 0 255 0 255 0 0 0 100 0 0 0 0 0 255 0 255 
0 0 0 100 0 0 0 0 0 255 0 255 0 0 0 100 0 0 0 0 0 255 0 255 0 0 0 100 0 0 0 0 0 255 0 255 0 0 0 100 0 0 0 0 0 255 0 255 0 0 0 100 0 0 0 0 0 255 0 255 0 0 0 100 0 0 0 0 0 255 0 255 0 0 0 100 0 0 0 0 0 255 0 255 0 0 0 100 0 0 0 0 0 255 0 255 0 0 0 100 0 0 0 0 0 255 0 255 0 0 0 100 0 0 0 0 0 255 0 255 0 0 0 100 0 0 0 0 0 255 0 255 0 0 0 100 0 0 0 0 0 255 0 255 0 0 0 100 0 0 0 0 0 255 0 255 0 0 0 100 0 0 0 0 0 255 0 255 0 0 0 100 0 0 0 0 0 255 0 255 0 0 0 100 0 0 0 0 0 255 0 255 0 0 0 100 0 0 0 0 0 255 0 255 0 0 0 100 0 0 0 0 0 255 0 255 0 0 0 100 0 0 0 0 0 255 0 255 0 0 0 100 0 0 0 0 0 255 0 255 0 
0 0 100 0 0 0 0 0 255 0 255 0 0 0 100 0 0 0 0 0 255 0 255 0 0 0 100 0 0 0 0 0 255 0 255 0 0 0 100 0 0 0 0 0 255 0 255 0 0 0 100 0 0 0 0 0 255 0 255 0 0 0 100 0 0 0 0 0 255 0 255 0 0 0 100 0 0 0 0 0 255 0 255 0 0 0 100 0 0 0 0 0 255 0 255 0 0 0 100 0 0 0 0 0 255 0 255 0 0 0 100 0 0 0 0 0 255 0 255 0 0 0 100 0 0 0 0 0 255 0 255 0 0 0 100 0 0 0 0 0 255 0 255 0 0 0 100 0 0 0 0 0 255 0 255 0 0 0 100 0 0 0 0 0 255 0 255 0 0 0 100 0 0 0 0 0 255 0 255 0 0 0 100 0 0 0 0 0 255 0 255 0 0 0 100 0 0 0 0 0 255 0 255 0 0 0 100 0 0 0 0 0 255 0 255 0 0 0 100 0 0 0 0 0 255 0 255 0 0 0 100 0 0 0 0 0 255 0 255 0 0 
0 100 0 0 0 0 0 255 0 255 0 0 0 100 0 0 0 0 0 255 0 255 0 0 0 100 0 0 0 0 0 255 0 255 0 0 0 100 0 0 0 0 0 255 0 255 0 0 0 100 0 0 0 0 0 255 0 255 0 0 0 100 0 0 0 0 0 255 0 255 0 0 0 100 0 0 0 0 0 255 0 255 0 0 0 100 0 0 0 0 0 255 0 255 0 0 0 100 0 0 0 0 0 255 0 255 0 0 0 100 0 0 0 0 0 255 0 255 0 0 0 100 0 0 0 0 0 255 0 255 0 0 0 100 0 0 0 0 0 255 0 255 0 0 0 100 0 0 0 0 0 255 0 255 0 0 0 100 0 0 0 0 0 255 0 255 0 0 0 100 0 0 0 0 0 255 0 255 0 0 0 100 0 0 0 0 0 255 0 255 0 0 0 100 0 0 0 0 0 255 0 255 0 0 0 100 0 0 0 0 0 255 0 255 0 0 0 100 0 0 0 0 0 255 0 255 0 0 0 100 0 0 0 0 0 255 0 255 0 0 0 
100 0 0 0 0 0 255 0 255 0 0 0 100 0 0 0 0 0 255 0 255 0 0 0 100 0 0 0 0 0 255 0 255 0 0 0 100 0 0 0 0 0 255 0 255 0 0 0 100 0 0 0 0 0 255 0 255 0 0 0 100 0 0 0 0 0 255 0 255 0 0 0 100 0 0 0 0 0 255 0 255 0 0 0 100 0 0 0 0 0 255 0 255 0 0 0 100 0 0 0 0 0 255 0 255 0 0 0 100 0 0 0 0 0 255 0 255 0 0 0 100 0 0 0 0 0 255 0 255 0 0 0 100 0 0 0 0 0 255 0 255 0 0 0 100 0 0 0 0 0 255 0 255 0 0 0 100 0 0 0 0 0 255 0 255 0 0 0 100 0 0 0 0 0 255 0 255 0 0 0 100 0 0 0 0 0 255 0 255 0 0 0 100 0 0 0 0 0 255 0 255 0 0 0 100 0 0 0 0 0 255 0 255 0 0 0 100 0 0 0 0 0 255 0 255 0 0 0 100 0 0 0 0 0 255 0 255 0 0 0 100 
0 0 0 0 0 255 0 255 0 0 0 100 0 0 0 0 0 255 0 255 0 0 0 100 0 0 0 0 0 255 0 255 0 0 0 100 0 0 0 0 0 255 0 255 0 0 0 100 0 0 0 0 0 255 0 255 0 0 0 100 0 0 0 0 0 255 0 255 0 0 0 100 0 0 0 0 0 255 0 255 0 0 0 100 0 0 0 0 0 255 0 255 0 0 0 100 0 0 0 0 0 255 0 255 0 0 0 100 0 0 0 0 0 255 0 255 0 0 0 100 0 0 0 0 0 255 0 255 0 0 0 100 0 0 0 0 0 255 0 255 0 0 0 100 0 0 0 0 0 255 0 255 0 0 0 100 0 0 0 0 0 255 0 255 0 0 0 100 0 0 0 0 0 255 0 255 0 0 0 100 0 0 0 0 0 255 0 255 0 0 0 100 0 0 0 0 0 255 0 255 0 0 0 100 0 0 0 0 0 255 0 255 0 0 0 100 0 0 0 0 0 255 0 255 0 0 0 100 0 0 0 0 0 255 0 255 0 0 0 100 0 
0 0 0 0 255 0 255 0 0 0 100 0 0 0 0 0 255 0 255 0 0 0 100 0 0 0 0 0 255 0 255 0 0 0 100 0 0 0 0 0 255 0 255 0 0 0 100 0 0 0 0 0 255 0 255 0 0 0 100 0 0 0 0 0 255 0 255 0 0 0 100 0 0 0 0 0 255 0 255 0 0 0 100 0 0 0 0 0 255 0 255 0 0 0 100 0 0 0 0 0 255 0 255 0 0 0 100 0 0 0 0 0 255 0 255 0 0 0 100 0 0 0 0 0 255 0 255 0 0 0 100 0 0 0 0 0 255 0 255 0 0 0 100 0 0 0 0 0 255 0 255 0 0 0 100 0 0 0 0 0 255 0 255 0 0 0 100 0 0 0 0 0 255 0 255 0 0 0 100 0 0 0 0 0 255 0 255 0 0 0 100 0 0 0 0 0 255 0 255 0 0 0 100 0 0 0 0 0 255 0 255 0 0 0 100 0 0 0 0 0 255 0 255 0 0 0 100 0 0 0 0 0 255 0 255 0 0 0 100 0 0 
0 0 0 255 0 255 0 0 0 100 0 0 0 0 0 255 0 255 0 0 0 100 0 0 0 0 0 255 0 255 0 0 0 100 0 0 0 0 0 255 0 255 0 0 0 100 0 0 0 0 0 255 0 255 0 0 0 100 0 0 0 0 0 255 0 255 0 0 0 100 0 0 0 0 0 255 0 255 0 0 0 100 0 0 0 0 0 255 0 255 0 0 0 100 0 0 0 0 0 255 0 255 0 0 0 100 0 0 0 0 0 255 0 255 0 0 0 100 0 0 0 0 0 255 0 255 0 0 0 100 0 0 0 0 0 255 0 255 0 0 0 100 0 0 0 0 0 255 0 255 0 0 0 100 0 0 0 0 0 255 0 255 0 0 0 100 0 0 0 0 0 255 0 255 0 0 0 100 0 0 0 0 0 255 0 255 0 0 0 100 0 0 0 0 0 255 0 255 0 0 0 100 0 0 0 0 0 255 0 255 0 0 0 100 0 0 0 0 0 255 0 255 0 0 0 100 0 0 0 0 0 255 0 255 0 0 0 100 0 0 0 
0 0 255 0 255 0 0 0 100 0 0 0 0 0 255 0 255 0 0 0 100 0 0 0 0 0 255 0 255 0 0 0 100 0 0 0 0 0 255 0 255 0 0 0 100 0 0 0 0 0 255 0 255 0 0 0 100 0 0 0 0 0 255 0 255 0 0 0 100 0 0 0 0 0 255 0 255 0 0 0 100 0 0 0 0 0 255 0 255 0 0 0 100 0 0 0 0 0 255 0 255 0 0 0 100 0 0 0 0 0 255 0 255 0 0 0 100 0 0 0 0 0 255 0 255 0 0 0 100 0 0 0 0 0 255 0 255 0 0 0 100 0 0 0 0 0 255 0 255 0 0 0 100 0 0 0 0 0 255 0 255 0 0 0 100 0 0 0 0 0 255 0 255 0 0 0 100 0 0 0 0 0 255 0 255 0 0 0 100 0 0 0 0 0 255 0 255 0 0 0 100 0 0 0 0 0 255 0 255 0 0 0 100 0 0 0 0 0 255 0 255 0 0 0 100 0 0 0 0 0 255 0 255 0 0 0 100 0 0 0 0 
0 255 0 255 0 0 0 100 0 0 0 0 0 255 0 255 0 0 0 100 0 0 0 0 0 255 0 255 0 0 0 100 0 0 0 0 0 255 0 255 0 0 0 100 0 0 0 0 0 255 0 255 0 0 0 100 0 0 0 0 0 255 0 255 0 0 0 100 0 0 0 0 0 255 0 255 0 0 0 100 0 0 0 0 0 255 0 255 0 0 0 100 0 0 0 0 0 255 0 255 0 0 0 100 0 0 0 0 0 255 0 255 0 0 0 100 0 0 0 0 0 255 0 255 0 0 0 100 0 0 0 0 0 255 0 255 0 0 0 100 0 0 0 0 0 255 0 255 0 0 0 100 0 0 0 0 0 255 0 255 0 0 0 100 0 0 0 0 0 255 0 255 0 0 0 100 0 0 0 0 0 255 0 255 0 0 0 100 0 0 0 0 0 255 0 255 0 0 0 100 0 0 0 0 0 255 0 255 0 0 0 100 0 0 0 0 0 255 0 255 0 0 0 100 0 0 0 0 0 255 0 255 0 0 0 100 0 0 0 0 0 
255 0 255 0 0 0 100 0 0 0 0 0 255 0 255 0 0 0 100 0 0 0 0 0 255 0 255 0 0 0 100 0 0 0 0 0 255 0 255 0 0 0 100 0 0 0 0 0 255 0 255 0 0 0 100 0 0 0 0 0 255 0 255 0 0 0 100 0 0 0 0 0 255 0 255 0 0 0 100 0 0 0 0 0 255 0 255 0 0 0 100 0 0 0 0 0 255 0 255 0 0 0 100 0 0 0 0 0 255 0 255 0 0 0 100 0 0 0 0 0 255 0 255 0 0 0 100 0 0 0 0 0 255 0 255 0 0 0 100 0 0 0 0 0 255 0 255 0 0 0 100 0 0 0 0 0 255 0 255 0 0 0 100 0 0 0 0 0 255 0 255 0 0 0 100 0 0 0 0 0 255 0 255 0 0 0 100 0 0 0 0 0 255 0 255 0 0 0 100 0 0 0 0 0 255 0 255 0 0 0 100 0 0 0 0 0 255 0 255 0 0 0 100 0 0 0 0 0 255 0 255 0 0 0 100 0 0 0 0 0 255 
0 255 0 0 0 100 0 0 0 0 0 255 0 255 0 0 0 100 0 0 0 0 0 255 0 255 0 0 0 100 0 0 0 0 0 255 0 255 0 0 0 100 0 0 0 0 0 255 0 255 0 0 0 100 0 0 0 0 0 255 0 255 0 0 0 100 0 0 0 0 0 255 0 255 0 0 0 100 0 0 0 0 0 255 0 255 0 0 0 100 0 0 0 0 0 255 0 255 0 0 0 100 0 0 0 0 0 255 0 255 0 0 0 100 0 0 0 0 0 255 0 255 0 0 0 100 0 0 0 0 0 255 0 255 0 0 0 100 0 0 0 0 0 255 0 255 0 0 0 100 0 0 0 0 0 255 0 255 0 0 0 100 0 0 0 0 0 255 0 255 0 0 0 100 0 0 0 0 0 255 0 255 0 0 0 100 0 0 0 0 0 255 0 255 0 0 0 100 0 0 0 0 0 255 0 255 0 0 0 100 0 0 0 0 0 255 0 255 0 0 0 100 0 0 0 0 0 255 0 255 0 0 0 100 0 0 0 0 0 255 0 
255 0 0 0 100 0 0 0 0 0 255 0 255 0 0 0 100 0 0 0 0 0 255 0 255 0 0 0 100 0 0 0 0 0 255 0 255 0 0 0 100 0 0 0 0 0 255 0 255 0 0 0 100 0 0 0 0 0 255 0 255 0 0 0 100 0 0 0 0 0 255 0 255 0 0 0 100 0 0 0 0 0 255 0 255 0 0 0 100 0 0 0 0 0 255 0 255 0 0 0 100 0 0 0 0 0 255 0 255 0 0 0 100 0 0 0 0 0 255 0 255 0 0 0 100 0 0 0 0 0 255 0 255 0 0 0 100 0 0 0 0 0 255 0 255 0 0 0 100 0 0 0 0 0 255 0 255 0 0 0 100 0 0 0 0 0 255 0 255 0 0 0 100 0 0 0 0 0 255 0 255 0 0 0 100 0 0 0 0 0 255 0 255 0 0 0 100 0 0 0 0 0 255 0 255 0 0 0 100 0 0 0 0 0 255 0 255 0 0 0 100 0 0 0 0 0 255 0 255 0 0 0 100 0 0 0 0 0 255 0 255 
0 0 0 100 0 0 0 0 0 255 0 255 0 0 0 100 0 0 0 0 0 255 0 255 0 0 0 100 0 0 0 0 0 255 0 255 0 0 0 100 0 0 0 0 0 255 0 255 0 0 0 100 0 0 0 0 0 255 0 255 0 0 0 100 0 0 0 0 0 255 0 255 0 0 0 100 0 0 0 0 0 255 0 255 0 0 0 100 0 0 0 0 0 255 0 255 0 0 0 100 0 0 0 0 0 255 0 255 0 0 0 100 0 0 0 0 0 255 0 255 0 0 0 100 0 0 0 0 0 255 0 255 0 0 0 100 0 0 0 0 0 255 0 255 0 0 0 100 0 0 0 0 0 255 0 255 0 0 0 100 0 0 0 0 0 255 0 255 0 0 0 100 0 0 0 0 0 255 0 255 0 0 0 100 0 0 0 0 0 255 0 255 0 0 0 100 0 0 0 0 0 255 0 255 0 0 0 100 0 0 0 0 0 255 0 255 0 0 0 100 0 0 0 0 0 255 0 255 0 0 0 100 0 0 0 0 0 255 0 255 0 
0 0 100 0 0 0 0 0 255 0 255 0 0 0 100 0 0 0 0 0 255 0 255 0 0 0 100 0 0 0 0 0 255 0 255 0 0 0 100 0 0 0 0 0 255 0 255 0 0 0 100 0 0 0 0 0 255 0 255 0 0 0 100 0 0 0 0 0 255 0 255 0 0 0 100 0 0 0 0 0 255 0 255 0 0 0 100 0 0 0 0 0 255 0 255 0 0 0 100 0 0 0 0 0 255 0 255 0 0 0 100 0 0 0 0 0 255 0 255 0 0 0 100 0 0 0 0 0 255 0 255 0 0 0 100 0 0 0 0 0 255 0 255 0 0 0 100 0 0 0 0 0 255 0 255 0 0 0 100 0 0 0 0 0 255 0 255 0 0 0 100 0 0 0 0 0 255 0 255 0 0 0 100 0 0 0 0 0 255 0 255 0 0 0 100 0 0 0 0 0 255 0 255 0 0 0 100 0 0 0 0 0 255 0 255 0 0 0 100 0 0 0 0 0 255 0 255 0 0 0 100 0 0 0 0 0 255 0 255 0 0 
0 100 0 0 0 0 0 255 0 255 0 0 0 100 0 0 0 0 0 255 0 255 0 0 0 100 0 0 0 0 0 255 0 255 0 0 0 100 0 0 0 0 0 255 0 255 0 0 0 100 0 0 0 0 0 255 0 255 0 0 0 100 0 0 0 0 0 255 0 255 0 0 0 100 0 0 0 0 0 255 0 255 0 0 0 100 0 0 0 0 0 255 0 255 0 0 0 100 0 0 0 0 0 255 0 255 0 0 0 100 0 0 0 0 0 255 0 255 0 0 0 100 0 0 0 0 0 255 0 255 0 0 0 100 0 0 0 0 0 255 0 255 0 0 0 100 0 0 0 0 0 255 0 255 0 0 0 100 0 0 0 0 0 255 0 255 0 0 0 100 0 0 0 0 0 255 0 255 0 0 0 100 0 0 0 0 0 255 0 255 0 0 0 100 0 0 0 0 0 255 0 255 0 0 0 100 0 0 0 0 0 255 0 255 0 0 0 100 0 0 0 0 0 255 0 255 0 0 0 100 0 0 0 0 0 255 0 255 0 0 0 
100 0 0 0 0 0 255 0 255 0 0 0 100 0 0 0 0 0 255 0 255 0 0 0 100 0 0 0 0 0 255 0 255 0 0 0 100 0 0 0 0 0 255 0 255 0 0 0 100 0 0 0 0 0 255 0 255 0 0 0 100 0 0 0 0 0 255 0 255 0 0 0 100 0 0 0 0 0 255 0 255 0 0 0 100 0 0 0 0 0 255 0 255 0 0 0 100 0 0 0 0 0 255 0 255 0 0 0 100 0 0 0 0 0 255 0 255 0 0 0 100 0 0 0 0 0 255 0 255 0 0 0 100 0 0 0 0 0 255 0 255 0 0 0 100 0 0 0 0 0 255 0 255 0 0 0 100 0 0 0 0 0 255 0 255 0 0 0 100 0 0 0 0 0 255 0 255 0 0 0 100 0 0 0 0 0 255 0 255 0 0 0 100 0 0 0 0 0 255 0 255 0 0 0 100 0 0 0 0 0 255 0 255 0 0 0 100 0 0 0 0 0 255 0 255 0 0 0 100 0 0 0 0 0 255 0 255 0 0 0 100 
0 0 0 0 0 255 0 255 0 0 0 100 0 0 0 0 0 255 0 255 0 0 0 100 0 0 0 0 0 255 0 255 0 0 0 100 0 0 0 0 0 255 0 255 0 0 0 100 0 0 0 0 0 255 0 255 0 0 0 100 0 0 0 0 0 255 0 255 0 0 0 100 0 0 0 0 0 255 0 255 0 0 0 100 0 0 0 0 0 255 0 255 0 0 0 100 0 0 0 0 0 255 0 255 0 0 0 100 0 0 0 0 0 255 0 255 0 0 0 100 0 0 0 0 0 255 0 255 0 0 0 100 0 0 0 0 0 255 0 255 0 0 0 100 0 0 0 0 0 255 0 255 0 0 0 100 0 0 0 0 0 255 0 255 0 0 0 100 0 0 0 0 0 255 0 255 0 0 0 100 0 0 0 0 0 255 0 255 0 0 0 100 0 0 0 0 0 255 0 255 0 0 0 100 0 0 0 0 0 255 0 255 0 0 0 100 0 0 0 0 0 255 0 255 0 0 0 100 0 0 0 0 0 255 0 255 0 0 0 100 0 
0 0 0 0 255 0 255 0 0 0 100 0 0 0 0 0 255 0 255 0 0 0 100 0 0 0 0 0 255 0 255 0 0 0 100 0 0 0 0 0 255 0 255 0 0 0 100 0 0 0 0 0 255 0 255 0 0 0 100 0 0 0 0 0 255 0 255 0 0 0 100 0 0 0 0 0 255 0 255 0 0 0 100 0 0 0 0 0 255 0 255 0 0 0 100 0 0 0 0 0 255 0 255 0 0 0 100 0 0 0 0 0 255 0 255 0 0 0 100 0 0 0 0 0 255 0 255 0 0 0 100 0 0 0 0 0 255 0 255 0 0 0 100 0 0 0 0 0 255 0 255 0 0 0 100 0 0 0 0 0 255 0 255 0 0 0 100 0 0 0 0 0 255 0 255 0 0 0 100 0 0 0 0 0 255 0 255 0 0 0 100 0 0 0 0 0 255 0 255 0 0 0 100 0 0 0 0 0 255 0 255 0 0 0 100 0 0 0 0 0 255 0 255 0 0 0 100 0 0 0 0 0 255 0 255 0 0 0 100 0 0 
0 0 0 255 0 255 0 0 0 100 0 0 0 0 0 255 0 255 0 0 0 100 0 0 0 0 0 255 0 255 0 0 0 100 0 0 0 0 0 255 0 255 0 0 0 100 0 0 0 0 0 255 0 255 0 0 0 100 0 0 0 0 0 255 0 255 0 0 0 100 0 0 0 0 0 255 0 255 0 0 0 100 0 0 0 0 0 255 0 255 0 0 0 100 0 0 0 0 0 255 0 255 0 0 0 100 0 0 0 0 0 255 0 255 0 0 0 100 0 0 0 0 0 255 0 255 0 0 0 100 0 0 0 0 0 255 0 255 0 0 0 100 0 0 0 0 0 255 0 255 0 0 0 100 0 0 0 0 0 255 0 255 0 0 0 100 0 0 0 0 0 255 0 255 0 0 0 100 0 0 0 0 0 255 0 255 0 0 0 100 0 0 0 0 0 255 0 255 0 0 0 100 0 0 0 0 0 255 0 255 0 0 0 100 0 0 0 0 0 255 0 255 0 0 0 100 0 0 0 0 0 255 0 255 0 0 0 100 0 0 0 
0 0 255 0 255 0 0 0 100 0 0 0 0 0 255 0 255 0 0 0 100 0 0 0 0 0 255 0 255 0 0 0 100 0 0 0 0 0 255 0 255 0 0 0 100 0 0 0 0 0 255 0 255 0 0 0 100 0 0 0 0 0 255 0 255 0 0 0 100 0 0 0 0 0 255 0 255 0 0 0 100 0 0 0 0 0 255 0 255 0 0 0 100 0 0 0 0 0 255 0 255 0 0 0 100 0 0 0 0 0 255 0 255 0 0 0 100 0 0 0 0 0 255 0 255 0 0 0 100 0 0 0 0 0 255 0 255 0 0 0 100 0 0 0 0 0 255 0 255 0 0 0 100 0 0 0 0 0 255 0 255 0 0 0 100 0 0 0 0 0 255 0 255 0 0 0 100 0 0 0 0 0 255 0 255 0 0 0 100 0 0 0 0 0 255 0 255 0 0 0 100 0 0 0 0 0 255 0 255 0 0 0 100 0 0 0 0 0 255 0 255 0 0 0 100 0 0 0 0 0 255 0 255 0 0 0 100 0 0 0 0 
0 255 0 255 0 0 0 100 0 0 0 0 0 255 0 255 0 0 0 100 0 0 0 0 0 255 0 255 0 0 0 100 0 0 0 0 0 255 0 255 0 0 0 100 0 0 0 0 0 255 0 255 0 0 0 100 0 0 0 0 0 255 0 255 0 0 0 100 0 0 0 0 0 255 0 255 0 0 0 100 0 0 0 0 0 255 0 255 0 0 0 100 0 0 0 0 0 255 0 255 0 0 0 100 0 0 0 0 0 255 0 255 0 0 0 100 0 0 0 0 0 255 0 255 0 0 0 100 0 0 0 0 0 255 0 255 0 0 0 100 0 0 0 0 0 255 0 255 0 0 0 100 0 0 0 0 0 255 0 255 0 0 0 100 0 0 0 0 0 255 0 255 0 0 0 100 0 0 0 0 0 255 0 255 0 0 0 100 0 0 0 0 0 255 0 255 0 0 0 100 0 0 0 0 0 255 0 255 0 0 0 100 0 0 0 0 0 255 0 255 0 0 0 100 0 0 0 0 0 255 0 255 0 0 0 100 0 0 0 0 0 
255 0 255 0 0 0 100 0 0 0 0 0 255 0 255 0 0 0 100 0 0 0 0 0 255 0 255 0 0 0 100 0 0 0 0 0 255 0 255 0 0 0 100 0 0 0 0 0 255 0 255 0 0 0 100 0 0 0 0 0 255 0 255 0 0 0 100 0 0 0 0 0 255 0 255 0 0 0 100 0 0 0 0 0 255 0 255 0 0 0 100 0 0 0 0 0 255 0 255 0 0 0 100 0 0 0 0 0 255 0 255 0 0 0 100 0 0 0 0 0 255 0 255 0 0 0 100 0 0 0 0 0 255 0 255 0 0 0 100 0 0 0 0 0 255 0 255 0 0 0 100 0 0 0 0 0 255 0 255 0 0 0 100 0 0 0 0 0 255 0 255 0 0 0 100 0 0 0 0 0 255 0 255 0 0 0 100 0 0 0 0 0 255 0 255 0 0 0 100 0 0 0 0 0 255 0 255 0 0 0 100 0 0 0 0 0 255 0 255 0 0 0 100 0 0 0 0 0 255 0 255 0 0 0 100 0 0 0 0 0 255 
0 255 0 0 0 100 0 0 0 0 0 255 0 255 0 0 0 100 0 0 0 0 0 255 0 255 0 0 0 100 0 0 0 0 0 255 0 255 0 0 0 100 0 0 0 0 0 255 0 255 0 0 0 100 0 0 0 0 0 255 0 255 0 0 0 100 0 0 0 0 0 255 0 255 0 0 0 100 0 0 0 0 0 255 0 255 0 0 0 100 0 0 0 0 0 255 0 255 0 0 0 100 0 0 0 0 0 255 0 255 0 0 0 100 0 0 0 0 0 255 0 255 0 0 0 100 0 0 0 0 0 255 0 255 0 0 0 100 0 0 0 0 0 255 0 255 0 0 0 100 0 0 0 0 0 255 0 255 0 0 0 100 0 0 0 0 0 255 0 255 0 0 0 100 0 0 0 0 0 255 0 255 0 0 0 100 0 0 0 0 0 255 0 255 0 0 0 100 0 0 0 0 0 255 0 255 0 0 0 100 0 0 0 0 0 255 0 255 0 0 0 100 0 0 0 0 0 255 0 255 0 0 0 100 0 0 0 0 0 255 0 
255 0 0 0 100 0 0 0 0 0 255 0 255 0 0 0 100 0 0 0 0 0 255 0 255 0 0 0 100 0 0 0 0 0 255 0 255 0 0 0 100 0 0 0 0 0 255 0 255 0 0 0 100 0 0 0 0 0 255 0 255 0 0 0 100 0 0 0 0 0 255 0 255 0 0 0 100 0 0 0 0 0 255 0 255 0 0 0 100 0 0 0 0 0 255 0 255 0 0 0 100 0 0 0 0 0 255 0 255 0 0 0 100 0 0 0 0 0 255 0 255 0 0 0 100 0 0 0 0 0 255 0 255 0 0 0 100 0 0 0 0 0 255 0 255 0 0 0 100 0 0 0 0 0 255 0 255 0 0 0 100 0 0 0 0 0 255 0 255 0 0 0 100 0 0 0 0 0 255 0 255 0 0 0 100 0 0 0 0 0 255 0 255 0 0 0 100 0 0 0 0 0 255 0 255 0 0 0 100 0 0 0 0 0 255 0 255 0 0 0 100 0 0 0 0 0 255 0 255 0 0 0 100 0 0 0 0 0 255 0 255 
0 0 0 100 0 0 0 0 0 255 0 255 0 0 0 100 0 0 0 0 0 255 0 255 0 0 0 100 0 0 0 0 0 255 0 255 0 0 0 100 0 0 0 0 0 255 0 255 0 0 0 100 0 0 0 0 0 255 0 255 0 0 0 100 0 0 0 0 0 255 0 255 0 0 0 100 0 0 0 0 0 255 0 255 0 0 0 100 0 0 0 0 0 255 0 255 0 0 0 100 0 0 0 0 0 255 0 255 0 0 0 100 0 0 0 0 0 255 0 255 0 0 0 100 0 0 0 0 0 255 0 255 0 0 0 100 0 0 0 0 0 255 0 255 0 0 0 100 0 0 0 0 0 255 0 255 0 0 0 100 0 0 0 0 0 255 0 255 0 0 0 100 0 0 0 0 0 255 0 255 0 0 0 100 0 0 0 0 0 255 0 255 0 0 0 100 0 0 0 0 0 255 0 255 0 0 0 100 0 0 0 0 0 255 0 255 0 0 0 100 0 0 0 0 0 255 0 255 0 0 0 100 0 0 0 0 0 255 0 255 0 
0 0 100 0 0 0 0 0 255 0 255 0 0 0 100 0 0 0 0 0 255 0 255 0 0 0 100 0 0 0 0 0 255 0 255 0 0 0 100 0 0 0 0 0 255 0 255 0 0 0 100 0 0 0 0 0 255 0 255 0 0 0 100 0 0 0 0 0 255 0 255 0 0 0 100 0 0 0 0 0 255 0 255 0 0 0 100 0 0 0 0 0 255 0 255 0 0 0 100 0 0 0 0 0 255 0 255 0 0 0 100 0 0 0 0 0 255 0 255 0 0 0 100 0 0 0 0 0 255 0 255 0 0 0 100 0 0 0 0 0 255 0 255 0 0 0 100 0 0 0 0 0 255 0 255 0 0 0 100 0 0 0 0 0 255 0 255 0 0 0 100 0 0 0 0 0 255 0 255 0 0 0 100 0 0 0 0 0 255 0 255 0 0 0 100 0 0 0 0 0 255 0 255 0 0 0 100 0 0 0 0 0 255 0 255 0 0 0 100 0 0 0 0 0 255 0 255 0 0 0 100 0 0 0 0 0 255 0 255 0 0 
0 100 0 0 0 0 0 255 0 255 0 0 0 100 0 0 0 0 0 255 0 255 0 0 0 100 0 0 0 0 0 255 0 255 0 0 0 100 0 0 0 0 0 255 0 255 0 0 0 100 0 0 0 0 0 255 0 255 0 0 0 100 0 0 0 0 0 255 0 255 0 0 0 100 0 0 0 0 0 255 0 255 0 0 0 100 0 0 0 0 0 255 0 255 0 0 0 100 0 0 0 0 0 255 0 255 0 0 0 100 0 0 0 0 0 255 0 255 0 0 0 100 0 0 0 0 0 255 0 255 0 0 0 100 0 0 0 0 0 255 0 255 0 0 0 100 0 0 0 0 0 255 0 255 0 0 0 100 0 0 0 0 0 255 0 255 0 0 0 100 0 0 0 0 0 255 0 255 0 0 0 100 0 0 0 0 0 255 0 255 0 0 0 100 0 0 0 0 0 255 0 255 0 0 0 100 0 0 0 0 0 255 0 255 0 0 0 100 0 0 0 0 0 255 0 255 0 0 0 100 0 0 0 0 0 255 0 255 0 0 0 
100 0 0 0 0 0 255 0 255 0 0 0 100 0 0 0 0 0 255 0 255 0 0 0 100 0 0 0 0 0 255 0 255 0 0 0 100 0 0 0 0 0 255 0 255 0 0 0 100 0 0 0 0 0 255 0 255 0 0 0 100 0 0 0 0 0 255 0 255 0 0 0 100 0 0 0 0 0 255 0 255 0 0 0 100 0 0 0 0 0 255 0 255 0 0 0 100 0 0 0 0 0 255 0 255 0 0 0 100 0 0 0 0 0 255 0 255 0 0 0 100 0 0 0 0 0 255 0 255 0 0 0 100 0 0 0 0 0 255 0 255 0 0 0 100 0 0 0 0 0 255 0 255 0 0 0 100 0 0 0 0 0 255 0 255 0 0 0 100 0 0 0 0 0 255 0 255 0 0 0 100 0 0 0 0 0 255 0 255 0 0 0 100 0 0 0 0 0 255 0 255 0 0 0 100 0 0 0 0 0 255 0 255 0 0 0 100 0 0 0 0 0 255 0 255 0 0 0 100 0 0 0 0 0 255 0 255 0 0 0 100 
0 0 0 0 0 255 0 255 0 0 0 100 0 0 0 0 0 255 0 255 0 0 0 100 0 0 0 0 0 255 0 255 0 0 0 100 0 0 0 0 0 255 0 255 0 0 0 100 0 0 0 0 0 255 0 255 0 0 0 100 0 0 0 0 0 255 0 255 0 0 0 100 0 0 0 0 0 255 0 255 0 0 0 100 0 0 0 0 0 255 0 255 0 0 0 100 0 0 0 0 0 255 0 255 0 0 0 100 0 0 0 0 0 255 0 255 0 0 0 100 0 0 0 0 0 255 0 255 0 0 0 100 0 0 0 0 0 255 0 255 0 0 0 100 0 0 0 0 0 255 0 255 0 0 0 100 0 0 0 0 0 255 0 255 0 0 0 100 0 0 0 0 0 255 0 255 0 0 0 100 0 0 0 0 0 255 0 255 0 0 0 100 0 0 0 0 0 255 0 255 0 0 0 100 0 0 0 0 0 255 0 255 0 0 0 100 0 0 0 0 0 255 0 255 0 0 0 100 0 0 0 0 0 255 0 255 0 0 0 100 0 
0 0 0 0 255 0 255 0 0 0 100 0 0 0 0 0 255 0 255 0 0 0 100 0 0 0 0 0 255 0 255 0 0 0 100 0 0 0 0 0 255 0 255 0 0 0 100 0 0 0 0 0 255 0 255 0 0 0 100 0 0 0 0 0 255 0 255 0 0 0 100 0 0 0 0 0 255 0 255 0 0 0 100 0 0 0 0 0 255 0 255 0 0 0 100 0 0 0 0 0 255 0 255 0 0 0 100 0 0 0 0 0 255 0 255 0 0 0 100 0 0 0 0 0 255 0 255 0 0 0 100 0 0 0 0 0 255 0 255 0 0 0 100 0 0 0 0 0 255 0 255 0 0 0 100 0 0 0 0 0 255 0 255 0 0 0 100 0 0 0 0 0 255 0 255 0 0 0 100 0 0 0 0 0 255 0 255 0 0 0 100 0 0 0 0 0 255 0 255 0 0 0 100 0 0 0 0 0 255 0 255 0 0 0 100 0 0 0 0 0 255 0 255 0 0 0 100 0 0 0 0 0 255 0 255 0 0 0 100 0 0 
0 0 0 255 0 255 0 0 0 100 0 0 0 0 0 255 0 255 0 0 0 100 0 0 0 0 0 255 0 255 0 0 0 100 0 0 0 0 0 255 0 255 0 0 0 100 0 0 0 0 0 255 0 255 0 0 0 100 0 0 0 0 0 255 0 255 0 0 0 100 0 0 0 0 0 255 0 255 0 0 0 100 0 0 0 0 0 255 0 255 0 0 0 100 0 0 0 0 0 255 0 255 0 0 0 100 0 0 0 0 0 255 0 255 0 0 0 100 0 0 0 0 0 255 0 255 0 0 0 100 0 0 0 0 0 255 0 255 0 0 0 100 0 0 0 0 0 255 0 255 0 0 0 100 0 0 0 0 0 255 0 255 0 0 0 100 0 0 0 0 0 255 0 255 0 0 0 100 0 0 0 0 0 255 0 255 0 0 0 100 0 0 0 0 0 255 0 255 0 0 0 100 0 0 0 0 0 255 0 255 0 0 0 100 0 0 0 0 0 255 0 255 0 0 0 100 0 0 0 0 0 255 0 255 0 0 0 100 0 0 0 
0 0 255 0 255 0 0 0 100 0 0 0 0 0 255 0 255 0 0 0 100 0 0 0 0 0 255 0 255 0 0 0 100 0 0 0 0 0 255 0 255 0 0 0 100 0 0 0 0 0 255 0 255 0 0 0 100 0 0 0 0 0 255 0 255 0 0 0 100 0 0 0 0 0 255 0 255 0 0 0 100 0 0 0 0 0 255 0 255 0 0 0 100 0 0 0 0 0 255 0 255 0 0 0 100 0 0 0 0 0 255 0 255 0 0 0 100 0 0 0 0 0 255 0 255 0 0 0 100 0 0 0 0 0 255 0 255 0 0 0 100 0 0 0 0 0 255 0 255 0 0 0 100 0 0 0 0 0 255 0 255 0 0 0 100 0 0 0 0 0 255 0 255 0 0 0 100 0 0 0 0 0 255 0 255 0 0 0 100 0 0 0 0 0 255 0 255 0 0 0 100 0 0 0 0 0 255 0 255 0 0 0 100 0 0 0 0 0 255 0 255 0 0 0 100 0 0 0 0 0 255 0 255 0 0 0 100 0 0 0 0 
0 255 0 255 0 0 0 100 0 0 0 0 0 255 0 255 0 0 0 100 0 0 0 0 0 255 0 255 0 0 0 100 0 0 0 0 0 255 0 255 0 0 0 100 0 0 0 0 0 255 0 255 0 0 0 100 0 0 0 0 0 255 0 255 0 0 0 100 0 0 0 0 0 255 0 255 0 0 0 100 0 0 0 0 0 255 0 255 0 0 0 100 0 0 0 0 0 255 0 255 0 0 0 100 0 0 0 0 0 255 0 255 0 0 0 100 0 0 0 0 0 255 0 255 0 0 0 100 0 0 0 0 0 255 0 255 0 0 0 100 0 0 0 0 0 255 0 255 0 0 0 100 0 0 0 0 0 255 0 255 0 0 0 100 0 0 0 0 0 255 0 255 0 0 0 100 0 0 0 0 0 255 0 255 0 0 0 100 0 0 0 0 0 255 0 255 0 0 0 100 0 0 0 0 0 255 0 255 0 0 0 100 0 0 0 0 0 255 0 255 0 0 0 100 0 0 0 0 0 255 0 255 0 0 0 100 0 0 0 0 0 
255 0 255 0 0 0 100 0 0 0 0 0 255 0 255 0 0 0 100 0 0 0 0 0 255 0 255 0 0 0 100 0 0 0 0 0 255 0 255 0 0 0 100 0 0 0 0 0 255 0 255 0 0 0 100 0 0 0 0 0 255 0 255 0 0 0 100 0 0 0 0 0 255 0 255 0 0 0 100 0 0 0 0 0 255 0 255 0 0 0 100 0 0 0 0 0 255 0 255 0 0 0 100 0 0 0 0 0 255 0 255 0 0 0 100 0 0 0 0 0 255 0 255 0 0 0 100 0 0 0 0 0 255 0 255 0 0 0 100 0 0 0 0 0 255 0 255 0 0 0 100 0 0 0 0 0 255 0 255 0 0 0 100 0 0 0 0 0 255 0 255 0 0 0 100 0 0 0 0 0 255 0 255 0 0 0 100 0 0 0 0 0 255 0 255 0 0 0 100 0 0 0 0 0 255 0 255 0 0 0 100 0 0 0 0 0 255 0 255 0 0 0 100 0 0 0 0 0 255 0 255 0 0 0 100 0 0 0 0 0 255 
0 255 0 0 0 100 0 0 0 0 0 255 0 255 0 0 0 100 0 0 0 0 0 255 0 255 0 0 0 100 0 0 0 0 0 255 0 255 0 0 0 100 0 0 0 0 0 255 0 255 0 0 0 100 0 0 0 0 0 255 0 255 0 0 0 100 0 0 0 0 0 255 0 255 0 0 0 100 0 0 0 0 0 255 0 255 0 0 0 100 0 0 0 0 0 255 0 255 0 0 0 100 0 0 0 0 0 255 0 255 0 0 0 100 0 0 0 0 0 255 0 255 0 0 0 100 0 0 0 0 0 255 0 255 0 0 0 100 0 0 0 0 0 255 0 255 0 0 0 100 0 0 0 0 0 255 0 255 0 0 0 100 0 0 0 0 0 255 0 255 0 0 0 100 0 0 0 0 0 255 0 255 0 0 0 100 0 0 0 0 0 255 0 255 0 0 0 100 0 0 0 0 0 255 0 255 0 0 0 100 0 0 0 0 0 255 0 255 0 0 0 100 0 0 0 0 0 255 0 255 0 0 0 100 0 0 0 0 0 255 0 
255 0 0 0 100 0 0 0 0 0 255 0 255 0 0 0 100 0 0 0 0 0 255 0 255 0 0 0 100 0 0 0 0 0 255 0 255 0 0 0 100 0 0 0 0 0 255 0 255 0 0 0 100 0 0 0 0 0 255 0 255 0 0 0 100 0 0 0 0 0 255 0 255 0 0 0 100 0 0 0 0 0 255 0 255 0 0 0 100 0 0 0 0 0 255 0 255 0 0 0 100 0 0 0 0 0 255 0 255 0 0 0 100 0 0 0 0 0 255 0 255 0 0 0 100 0 0 0 0 0 255 0 255 0 0 0 100 0 0 0 0 0 255 0 255 0 0 0 100 0 0 0 0 0 255 0 255 0 0 0 100 0 0 0 0 0 255 0 255 0 0 0 100 0 0 0 0 0 255 0 255 0 0 0 100 0 0 0 0 0 255 0 255 0 0 0 100 0 0 0 0 0 255 0 255 0 0 0 100 0 0 0 0 0 255 0 255 0 0 0 100 0 0 0 0 0 255 0 255 0 0 0 100 0 0 0 0 0 255 0 255 
0 0 0 100 0 0 0 0 0 255 0 255 0 0 0 100 0 0 0 0 0 255 0 255 0 0 0 100 0 0 0 0 0 255 0 255 0 0 0 100 0 0 0 0 0 255 0 255 0 0 0 100 0 0 0 0 0 255 0 255 0 0 0 100 0 0 0 0 0 255 0 255 0 0 0 100 0 0 0 0 0 255 0 255 0 0 0 100 0 0 0 0 0 255 0 255 0 0 0 100 0 0 0 0 0 255 0 255 0 0 0 100 0 0 0 0 0 255 0 255 0 0 0 100 0 0 0 0 0 255 0 255 0 0 0 100 0 0 0 0 0 255 0 255 0 0 0 100 0 0 0 0 0 255 0 255 0 0 0 100 0 0 0 0 0 255 0 255 0 0 0 100 0 0 0 0 0 255 0 255 0 0 0 100 0 0 0 0 0 255 0 255 0 0 0 100 0 0 0 0 0 255 0 255 0 0 0 100 0 0 0 0 0 255 0 255 0 0 0 100 0 0 0 0 0 255 0 255 0 0 0 100 0 0 0 0 0 255 0 255 0 
0 0 100 0 0 0 0 0 255 0 255 0 0 0 100 0 0 0 0 0 255 0 255 0 0 0 100 0 0 0 0 0 255 0 255 0 0 0 100 0 0 0 0 0 255 0 255 0 0 0 100 0 0 0 0 0 255 0 255 0 0 0 100 0 0 0 0 0 255 0 255 0 0 0 100 0 0 0 0 0 255 0 255 0 0 0 100 0 0 0 0 0 255 0 255 0 0 0 100 0 0 0 0 0 255 0 255 0 0 0 100 0 0 0 0 0 255 0 255 0 0 0 100 0 0 0 0 0 255 0 255 0 0 0 100 0 0 0 0 0 255 0 255 0 0 0 100 0 0 0 0 0 255 0 255 0 0 0 100 0 0 0 0 0 255 0 255 0 0 0 100 0 0 0 0 0 255 0 255 0 0 0 100 0 0 0 0 0 255 0 255 0 0 0 100 0 0 0 0 0 255 0 255 0 0 0 100 0 0 0 0 0 255 0 255 0 0 0 100 0 0 0 0 0 255 0 255 0 0 0 100 0 0 0 0 0 255 0 255 0 0 
0 100 0 0 0 0 0 255 0 255 0 0 0 100 0 0 0 0 0 255 0 255 0 0 0 100 0 0 0 0 0 255 0 255 0 0 0 100 0 0 0 0 0 255 0 255 0 0 0 100 0 0 0 0 0 255 0 255 0 0 0 100 0 0 0 0 0 255 0 255 0 0 0 100 0 0 0 0 0 255 0 255 0 0 0 100 0 0 0 0 0 255 0 255 0 0 0 100 0 0 0 0 0 255 0 255 0 0 0 100 0 0 0 0 0 255 0 255 0 0 0 100 0 0 0 0 0 255 0 255 0 0 0 100 0 0 0 0 0 255 0 255 0 0 0 100 0 0 0 0 0 255 0 255 0 0 0 100 0 0 0 0 0 255 0 255 0 0 0 100 0 0 0 0 0 255 0 255 0 0 0 100 0 0 0 0 0 255 0 255 0 0 0 100 0 0 0 0 0 255 0 255 0 0 0 100 0 0 0 0 0 255 0 255 0 0 0 100 0 0 0 0 0 255 0 255 0 0 0 100 0 0 0 0 0 255 0 255 0 0 0 
100 0 0 0 0 0 255 0 255 0 0 0 100 0 0 0 0 0 255 0 255 0 0 0 100 0 0 0 0 0 255 0 255 0 0 0 100 0 0 0 0 0 255 0 255 0 0 0 100 0 0 0 0 0 255 0 255 0 0 0 100 0 0 0 0 0 255 0 255 0 0 0 100 0 0 0 0 0 255 0 255 0 0 0 100 0 0 0 0 0 255 0 255 0 0 0 100 0 0 0 0 0 255 0 255 0 0 0 100 0 0 0 0 0 255 0 255 0 0 0 100 0 0 0 0 0 255 0 255 0 0 0 100 0 0 0 0 0 255 0 255 0 0 0 100 0 0 0 0 0 255 0 255 0 0 0 100 0 0 0 0 0 255 0 255 0 0 0 100 0 0 0 0 0 255 0 255 0 0 0 100 0 0 0 0 0 255 0 255 0 0 0 100 0 0 0 0 0 255 0 255 0 0 0 100 0 0 0 0 0 255 0 255 0 0 0 100 0 0 0 0 0 255 0 255 0 0 0 100 0 0 0 0 0 255 0 255 0 0 0 100 
0 0 0 0 0 255 0 255 0 0 0 100 0 0 0 0 0 255 0 255 0 0 0 100 0 0 0 0 0 255 0 255 0 0 0 100 0 0 0 0 0 255 0 255 0 0 0 100 0 0 0 0 0 255 0 255 0 0 0 100 0 0 0 0 0 255 0 255 0 0 0 100 0 0 0 0 0 255 0 255 0 0 0 100 0 0 0 0 0 255 0 255 0 0 0 100 0 0 0 0 0 255 0 255 0 0 0 100 0 0 0 0 0 255 0 255 0 0 0 100 0 0 0 0 0 255 0 255 0 0 0 100 0 0 0 0 0 255 0 255 0 0 0 100 0 0 0 0 0 255 0 255 0 0 0 100 0 0 0 0 0 255 0 255 0 0 0 100 0 0 0 0 0 255 0 255 0 0 0 100 0 0 0 0 0 255 0 255 0 0 0 100 0 0 0 0 0 255 0 255 0 0 0 100 0 0 0 0 0 255 0 255 0 0 0 100 0 0 0 0 0 255 0 255 0 0 0 100 0 0 0 0 0 255 0 255 0 0 0 100 0 
0 0 0 0 255 0 255 0 0 0 100 0 0 0 0 0 255 0 255 0 0 0 100 0 0 0 0 0 255 0 255 0 0 0 100 0 0 0 0 0 255 0 255 0 0 0 100 0 0 0 0 0 255 0 255 0 0 0 100 0 0 0 0 0 255 0 255 0 0 0 100 0 0 0 0 0 255 0 255 0 0 0 100 0 0 0 0 0 255 0 255 0 0 0 100 0 0 0 0 0 255 0 255 0 0 0 100 0 0 0 0 0 255 0 255 0 0 0 100 0 0 0 0 0 255 0 255 0 0 0 100 0 0 0 0 0 255 0 255 0 0 0 100 0 0 0 0 0 255 0 255 0 0 0 100 0 0 0 0 0 255 0 255 0 0 0 100 0 0 0 0 0 255 0 255 0 0 0 100 0 0 0 0 0 255 0 255 0 0 0 100 0 0 0 0 0 255 0 255 0 0 0 100 0 0 0 0 0 255 0 255 0 0 0 100 0 0 0 0 0 255 0 255 0 0 0 100 0 0 0 0 0 255 0 255 0 0 0 100 0 0 
0 0 0 255 0 255 0 0 0 100 0 0 0 0 0 255 0 255 0 0 0 100 0 0 0 0 0 255 0 255 0 0 0 100 0 0 0 0 0 255 0 255 0 0 0 100 0 0 0 0 0 255 0 255 0 0 0 100 0 0 0 0 0 255 0 255 0 0 0 100 0 0 0 0 0 255 0 255 0 0 0 100 0 0 0 0 0 255 0 255 0 0 0 100 0 0 0 0 0 255 0 255 0 0 0 100 0 0 0 0 0 255 0 255 0 0 0 100 0 0 0 0 0 255 0 255 0 0 0 100 0 0 0 0 0 255 0 255 0 0 0 100 0 0 0 0 0 255 0 255 0 0 0 100 0 0 0 0 0 255 0 255 